PathFileType	4	(X/Y/Z)	/Users/itak/Documents/Research/Walk-IL/dataset/trc/00517_00183.trc
DataRate	CameraRate	NumFrames	NumMarkers	Units	OrigDataRate	OrigDataStartFrame	OrigNumFrames
100.000000	100.000000	4	54	mm	100.000000	147	392
Frame#	Time	RPSI			LPSI			L3			STRN			T10			C7			CLAV			RBAK			LBAK			LSHO			LUPA			LAEL			LAOL			LWTS			LWPS			LFRA			LIFD			LHPS			LHTS			RSHO			RUPA			RAEL			RAOL			RWTS			RWPS			RFRA			RIFD			RHTS			RHPS			RBHD			LFHD			RFHD			LBHD			RHIP			RASI			LASI			LKNE			LTHI			LANK			LTIP			LTOE			LMT1			LMT5			LHEE			RKNE			RTHI			RANK			RTIP			RTOE			RMT1			RMT5			RHEE			LHIP			*53			
		X1	Y1	Z1	X2	Y2	Z2	X3	Y3	Z3	X4	Y4	Z4	X5	Y5	Z5	X6	Y6	Z6	X7	Y7	Z7	X8	Y8	Z8	X9	Y9	Z9	X10	Y10	Z10	X11	Y11	Z11	X12	Y12	Z12	X13	Y13	Z13	X14	Y14	Z14	X15	Y15	Z15	X16	Y16	Z16	X17	Y17	Z17	X18	Y18	Z18	X19	Y19	Z19	X20	Y20	Z20	X21	Y21	Z21	X22	Y22	Z22	X23	Y23	Z23	X24	Y24	Z24	X25	Y25	Z25	X26	Y26	Z26	X27	Y27	Z27	X28	Y28	Z28	X29	Y29	Z29	X30	Y30	Z30	X31	Y31	Z31	X32	Y32	Z32	X33	Y33	Z33	X34	Y34	Z34	X35	Y35	Z35	X36	Y36	Z36	X37	Y37	Z37	X38	Y38	Z38	X39	Y39	Z39	X40	Y40	Z40	X41	Y41	Z41	X42	Y42	Z42	X43	Y43	Z43	X44	Y44	Z44	X45	Y45	Z45	X46	Y46	Z46	X47	Y47	Z47	X48	Y48	Z48	X49	Y49	Z49	X50	Y50	Z50	X51	Y51	Z51	X52	Y52	Z52	X53	Y53	Z53	X54	Y54	Z54	

148	1.47	271.8985290527344	916.5924072265625	-106.6759948730469	301.8800964355469	928.0941772460938	-225.8389282226562	287.1225280761719	1001.733459472656	-176.9343872070312	509.4567565917969	1158.492431640625	-125.053352355957	277.6746215820312	1106.7353515625	-177.1597595214844	332.6376342773438	1334.46337890625	-154.1945495605469	477.7782592773438	1254.812744140625	-126.6166534423828	259.3061828613281	1213.215942382812	-87.71853637695312	323.8836669921875	1283.962158203125	-247.5595855712891	431.7808837890625	1332.8447265625	-297.2233276367188	438.5945129394531	1210.634521484375	-366.225830078125	475.0085144042969	1004.912780761719	-403.6558837890625	390.1947631835938	984.7894287109375	-353.8771667480469	571.4208374023438	823.8386840820312	-350.6927795410156	510.7427673339844	784.2838134765625	-410.9180297851562	502.1702575683594	922.1190185546875	-403.8606872558594	595.3681640625	669.0216064453125	-357.5174560546875	543.3702392578125	739.8131713867188	-408.766845703125	595.8726196289062	751.9248657226562	-374.2243041992188	349.9255065917969	1319.839477539062	1.664222240447998	312.4421081542969	1253.20703125	44.31805038452148	256.1834411621094	990.958251953125	63.09196472167969	225.2253570556641	983.0152587890625	4.912838459014893	327.6386108398438	774.8795776367188	66.12762451171875	236.1715850830078	762.3351440429688	70.05121612548828	247.1678924560547	936.7548828125	66.45524597167969	301.8221130371094	617.8110961914062	63.02594375610352	313.7181701660156	682.6118774414062	89.98276519775391	244.0607604980469	691.1603393554688	78.04710388183594	357.4114990234375	1477.347534179688	-49.0612678527832	530.4078979492188	1543.510131835938	-125.0795440673828	482.2728576660156	1521.609130859375	-9.411479949951172	404.8563232421875	1502.384155273438	-199.8213500976562	359.3197631835938	823.1355590820312	35.67842483520508	464.4103393554688	877.9261474609375	-12.00453948974609	511.3936462402344	893.9473266601562	-250.1511077880859	361.50927734375	453.6844787597656	-297.3494567871094	416.4978332519531	603.1602172851562	-314.0594787597656	145.9756164550781	62.04141998291016	-314.0156860351562	290.6702575683594	314.8668518066406	-306.7116088867188	329.9273986816406	33.87574005126953	-225.483642578125	247.8721466064453	41.61390686035156	-204.7707672119141	254.1153411865234	42.30830764770508	-306.65478515625	89.02429962158203	66.11098480224609	-262.7048950195312	524.20751953125	474.8128662109375	22.81258392333984	414.5766906738281	707.6573486328125	48.30906295776367	643.8065185546875	44.48902893066406	14.65984535217285	584.4554443359375	344.4078979492188	33.61194229125977	807.984619140625	122.9560623168945	93.59291839599609	786.8649291992188	104.9726486206055	26.03618621826172	719.878173828125	74.40174102783203	90.43016815185547	633.6725463867188	30.76083183288574	-53.78539657592773	434.7557373046875	864.5460815429688	-336.5696716308594	nan	nan	nan	
149	1.48	282.7137451171875	915.3262939453125	-101.9392242431641	312.3478088378906	927.0733032226562	-221.1258544921875	297.5162353515625	1000.230712890625	-172.9431762695312	519.5863647460938	1157.214965820312	-120.5111999511719	287.6943664550781	1105.236694335938	-173.8851928710938	342.629638671875	1332.986328125	-150.5014038085938	487.8362426757812	1253.524658203125	-122.2732849121094	269.0795593261719	1211.706665039062	-84.43190002441406	334.2156066894531	1282.391479492188	-243.8782501220703	442.337890625	1331.332641601562	-293.1458129882812	449.4457092285156	1209.038940429688	-361.9606018066406	486.0780334472656	1003.290954589844	-399.0524291992188	401.2179870605469	983.15185546875	-349.3103637695312	583.3016357421875	823.1813354492188	-345.3235168457031	522.7676391601562	782.8145751953125	-405.1571044921875	513.4784545898438	920.6148071289062	-398.8595275878906	608.3389282226562	668.4898681640625	-351.0844421386719	555.3866577148438	737.6974487304688	-402.3598327636719	608.28857421875	751.31494140625	-368.3622436523438	359.1439514160156	1318.466430664062	5.425572395324707	321.2950134277344	1251.83544921875	47.68455123901367	264.2520446777344	989.7544555664062	65.42321014404297	233.9669647216797	981.9973754882812	6.854379177093506	334.9581298828125	773.3441162109375	68.59398651123047	243.3453979492188	761.1466674804688	71.73309326171875	255.0315856933594	935.559326171875	68.59967803955078	308.377197265625	616.3128051757812	64.36508178710938	320.3751831054688	680.9133911132812	91.75052642822266	250.8181457519531	689.9277954101562	79.43848419189453	366.4103393554688	1475.890014648438	-45.37866592407227	539.8938598632812	1542.411010742188	-120.0232162475586	490.8964233398438	1520.239868164062	-4.771329402923584	415.039794921875	1501.1708984375	-195.8113098144531	370.3729553222656	821.4754028320312	39.86831283569336	475.56396484375	876.1182250976562	-8.09864330291748	521.766357421875	892.52294921875	-246.4239654541016	368.787841796875	453.0831909179688	-294.5653991699219	424.9156494140625	602.3015747070312	-310.892822265625	147.0308532714844	64.66594696044922	-314.109619140625	296.0864868164062	315.2308959960938	-304.9221801757812	329.9012145996094	33.85973739624023	-225.4414978027344	248.2745361328125	42.22710418701172	-204.8608245849609	254.7317199707031	42.79275131225586	-306.7590026855469	89.98806762695312	69.94896697998047	-263.0560302734375	535.2907104492188	473.4180297851562	26.02928733825684	425.6058959960938	706.1282958984375	52.21770095825195	655.79736328125	43.32098770141602	15.83981227874756	595.8174438476562	342.8855590820312	36.10892105102539	819.6841430664062	121.713005065918	95.22618103027344	798.6807861328125	103.9667739868164	27.5892391204834	731.6836547851562	73.00617980957031	91.84733581542969	645.7103881835938	29.83834075927734	-52.62366104125977	445.0899658203125	863.4746704101562	-332.2223815917969	nan	nan	nan	
150	1.49	293.7794494628906	914.266357421875	-97.03782653808594	323.0672607421875	926.2202758789062	-216.2456512451172	308.0704040527344	998.847412109375	-168.7929077148438	529.86962890625	1156.119995117188	-115.7781219482422	297.781494140625	1103.878662109375	-170.4122467041016	352.7241821289062	1331.649047851562	-146.6240692138672	498.0191955566406	1252.40966796875	-117.7321548461914	278.9185180664062	1210.337646484375	-80.96083831787109	344.6436462402344	1280.961303710938	-239.9886169433594	452.9883117675781	1330.000122070312	-288.8535461425781	460.3666687011719	1207.6376953125	-357.5079040527344	497.1266479492188	1001.846008300781	-394.2493286132812	412.2085571289062	981.7389526367188	-344.5643920898438	594.9869995117188	822.5780029296875	-339.7881774902344	534.6173095703125	781.4951171875	-399.3119506835938	524.7194213867188	919.3005981445312	-393.6902160644531	620.9256591796875	667.99072265625	-344.5003662109375	567.0640869140625	735.5084838867188	-395.7596740722656	620.4193115234375	750.7311401367188	-362.3329467773438	368.4470825195312	1317.244384765625	9.363621711730957	330.2568969726562	1250.621459960938	51.23773193359375	272.4474182128906	988.701416015625	67.85108947753906	242.9106140136719	981.119140625	8.861404418945312	342.4118041992188	771.9585571289062	71.19712066650391	250.6549072265625	760.1017456054688	73.42903900146484	263.0228881835938	934.517822265625	70.82640838623047	315.1726684570312	614.9800415039062	65.88527679443359	327.1641235351562	679.3958129882812	93.699462890625	257.7746276855469	688.8472900390625	80.85874176025391	375.4246215820312	1474.630249023438	-41.56980133056641	549.33642578125	1541.529663085938	-114.9620056152344	499.4854125976562	1519.163452148438	-0.1039183437824249	425.1808166503906	1500.047607421875	-191.7179412841797	381.6922912597656	819.9880981445312	44.1844482421875	486.9666748046875	874.47607421875	-4.060307502746582	532.3607177734375	891.2534790039062	-242.5785369873047	376.550048828125	452.5177307128906	-291.5301208496094	433.7732543945312	601.4999389648438	-307.5152282714844	148.3245849609375	67.64723968505859	-314.262939453125	301.9329223632812	315.7265014648438	-303.0374145507812	329.8587341308594	33.87148284912109	-225.4197082519531	248.736572265625	42.96639633178711	-204.9598388671875	255.4522399902344	43.34302139282227	-306.9530029296875	91.22377014160156	74.30876922607422	-263.444580078125	546.4763793945312	472.1499633789062	29.13627052307129	436.9240417480469	704.764404296875	56.20056533813477	665.6728515625	42.03860092163086	16.5075798034668	606.830078125	341.2090759277344	38.35419082641602	830.0150756835938	119.071662902832	95.95748901367188	808.8638305664062	101.70166015625	28.28067016601562	741.79931640625	70.86981201171875	92.53583526611328	655.5364379882812	28.78643035888672	-52.01744842529297	455.6315612792969	862.5084838867188	-327.6949157714844	nan	nan	nan	
151	1.5	305.1062622070312	913.421142578125	-91.98324584960938	334.0628356933594	925.5302734375	-211.2123413085938	318.8128662109375	997.57763671875	-164.4750518798828	540.3160400390625	1155.217407226562	-110.8568878173828	307.937255859375	1102.654541015625	-166.6949615478516	362.9042053222656	1330.455200195312	-142.5518493652344	508.3259582519531	1251.476196289062	-112.9961700439453	288.8239440917969	1209.108764648438	-77.27083587646484	355.1709899902344	1279.674560546875	-235.8909759521484	463.7104797363281	1328.845825195312	-284.3518371582031	471.343994140625	1206.426025390625	-352.867919921875	508.1549072265625	1000.578430175781	-389.2569580078125	423.167236328125	980.5426025390625	-339.6466979980469	606.4822998046875	822.022216796875	-334.0995483398438	546.3081665039062	780.3268432617188	-393.4132690429688	535.8954467773438	918.1692504882812	-388.3746032714844	633.1160278320312	667.5099487304688	-337.7895812988281	578.4891357421875	733.4591674804688	-389.0832214355469	632.2627563476562	750.1676025390625	-356.1552734375	377.8439331054688	1316.174194335938	13.49047565460205	339.3479919433594	1249.564208984375	54.99697494506836	280.7856750488281	987.7918090820312	70.40232086181641	252.0543823242188	980.3816528320312	10.97176074981689	349.9981079101562	770.7160034179688	73.94651031494141	258.100830078125	759.2028198242188	75.15029144287109	271.15869140625	933.6280517578125	73.15962982177734	322.1976928710938	613.808837890625	67.59194946289062	334.0832824707031	678.0527954101562	95.83917999267578	264.9398803710938	687.9125366210938	82.29753112792969	384.46240234375	1473.578979492188	-37.6314811706543	558.7421264648438	1540.8701171875	-109.9021224975586	508.0603332519531	1518.38427734375	4.588203430175781	435.2767028808594	1499.023071289062	-187.5364990234375	393.2992248535156	818.689453125	48.64311218261719	498.6010131835938	873.0136108398438	0.1117684543132782	543.2041015625	890.1420288085938	-238.60546875	384.8556823730469	451.9837036132812	-288.258056640625	443.1248474121094	600.7586059570312	-303.9349365234375	149.8777008056641	70.99281311035156	-314.4588012695312	308.2492980957031	316.3707580566406	-301.0762023925781	329.7929077148438	33.91269302368164	-225.4204254150391	249.2833404541016	43.84510040283203	-205.0624084472656	256.2883605957031	43.94778823852539	-307.2483215332031	92.80620574951172	79.23284912109375	-263.8418579101562	557.685546875	470.9679260253906	32.13209533691406	448.5131530761719	703.547607421875	60.24858474731445	673.6116333007812	40.77411651611328	16.73112297058105	617.488037109375	339.3846130371094	40.36143112182617	839.1694946289062	115.1188125610352	95.84267425537109	817.6043090820312	98.23499298095703	28.17065811157227	750.3973999023438	68.13854217529297	92.54953765869141	663.3556518554688	27.70371437072754	-51.89134979248047	466.4210510253906	861.6533203125	-322.98779296875	nan	nan	nan	
